HIERARCHY
ROOT Hips
{
	OFFSET 0.000000 0.000000 0.000000
	CHANNELS 6 Xposition Yposition Zposition Xrotation Yrotation Zrotation
	JOINT Spine
	{
		OFFSET 0.000000 -0.000000 1.489414
		CHANNELS 6 Xposition Yposition Zposition Xrotation Yrotation Zrotation
		JOINT Spine1
		{
			OFFSET 0.000000 -0.000001 4.064482
			CHANNELS 6 Xposition Yposition Zposition Xrotation Yrotation Zrotation
			JOINT Neck
			{
				OFFSET 0.000000 -0.000001 4.427754
				CHANNELS 6 Xposition Yposition Zposition Xrotation Yrotation Zrotation
				JOINT Head
				{
					OFFSET 0.000000 -0.363272 2.815356
					CHANNELS 6 Xposition Yposition Zposition Xrotation Yrotation Zrotation
					End Site
					{
						OFFSET 0.000000 -0.000001 3.632717
					}
				}
			}
			JOINT LeftShoulder
			{
				OFFSET 0.731535 0.096024 3.575184
				CHANNELS 6 Xposition Yposition Zposition Xrotation Yrotation Zrotation
				JOINT LeftArm
				{
					OFFSET 2.610319 0.000000 0.000000
					CHANNELS 6 Xposition Yposition Zposition Xrotation Yrotation Zrotation
					JOINT LeftForeArm
					{
						OFFSET 5.118421 0.000000 0.000000
						CHANNELS 6 Xposition Yposition Zposition Xrotation Yrotation Zrotation
						JOINT LeftHand
						{
							OFFSET 4.756909 0.000000 0.000000
							CHANNELS 6 Xposition Yposition Zposition Xrotation Yrotation Zrotation
							End Site
							{
								OFFSET 2.724539 0.000000 0.000000
							}
						}
					}
				}
			}
			JOINT RightShoulder
			{
				OFFSET -0.721442 0.096024 3.575184
				CHANNELS 6 Xposition Yposition Zposition Xrotation Yrotation Zrotation
				JOINT RightArm
				{
					OFFSET -2.610319 0.000000 0.000000
					CHANNELS 6 Xposition Yposition Zposition Xrotation Yrotation Zrotation
					JOINT RightForeArm
					{
						OFFSET -5.118422 0.000000 0.000000
						CHANNELS 6 Xposition Yposition Zposition Xrotation Yrotation Zrotation
						JOINT RightHand
						{
							OFFSET -4.756909 0.000000 0.000000
							CHANNELS 6 Xposition Yposition Zposition Xrotation Yrotation Zrotation
							End Site
							{
								OFFSET -2.724539 0.000000 0.000000
							}
						}
					}
				}
			}
		}
	}
	JOINT LeftUpLeg
	{
		OFFSET 1.816359 0.000000 0.000000
		CHANNELS 6 Xposition Yposition Zposition Xrotation Yrotation Zrotation
		JOINT LeftLeg
		{
			OFFSET 0.000000 0.000001 -7.638974
			CHANNELS 6 Xposition Yposition Zposition Xrotation Yrotation Zrotation
			JOINT LeftFoot
			{
				OFFSET 0.000000 0.000001 -8.008609
				CHANNELS 6 Xposition Yposition Zposition Xrotation Yrotation Zrotation
				JOINT LeftToeBase
				{
					OFFSET 0.000000 -2.724539 -1.180634
					CHANNELS 6 Xposition Yposition Zposition Xrotation Yrotation Zrotation
					End Site
					{
						OFFSET 0.000000 -0.726544 0.000000
					}
				}
			}
		}
	}
	JOINT RightUpLeg
	{
		OFFSET -1.816359 0.000000 0.000000
		CHANNELS 6 Xposition Yposition Zposition Xrotation Yrotation Zrotation
		JOINT RightLeg
		{
			OFFSET 0.000000 0.000001 -7.638974
			CHANNELS 6 Xposition Yposition Zposition Xrotation Yrotation Zrotation
			JOINT RightFoot
			{
				OFFSET 0.000000 0.000001 -8.008609
				CHANNELS 6 Xposition Yposition Zposition Xrotation Yrotation Zrotation
				JOINT RightToeBase
				{
					OFFSET 0.000000 -2.724539 -1.180634
					CHANNELS 6 Xposition Yposition Zposition Xrotation Yrotation Zrotation
					End Site
					{
						OFFSET 0.000000 -0.726544 0.000000
					}
				}
			}
		}
	}
}
MOTION
Frames: 6
Frame Time: 0.041667
22.311125 0.904899 16.088011 11.840746 1.755606 206.397839 0.000000 -0.000000 1.489413 -12.820248 -4.676947 -2.209423 0.000000 -0.000001 4.064481 19.733774 -1.147160 -0.381851 -0.000001 -0.000001 4.427757 12.201886 -5.489871 10.254206 -0.000000 -0.363271 2.815354 4.057310 12.724063 11.879066 0.731535 0.096025 3.575186 -8.439546 -17.193331 -0.282057 2.610318 -0.000000 0.000000 4.432023 25.282473 -19.413918 5.118420 -0.000001 0.000006 -14.714838 -10.057431 -20.707887 4.756909 0.000001 -0.000002 -12.816545 4.954697 -1.334402 -0.721444 0.096025 3.575187 -3.968543 16.572983 -6.106148 -2.610323 0.000000 0.000001 26.411158 -10.726242 25.257256 -5.118417 -0.000001 0.000003 -53.982615 35.310691 119.621993 -4.756908 -0.000003 0.000003 1.962800 27.159909 5.882830 1.816359 -0.000000 0.000001 10.074849 5.690132 -15.785554 -0.000001 0.000001 -7.638977 20.012946 1.705819 -9.558914 -0.000000 0.000001 -8.008608 -2.643823 -12.218043 7.894953 0.000002 -2.724539 -1.180633 0.000001 0.000000 0.000000 -1.816358 0.000001 0.000001 -75.780662 -3.513806 9.918598 -0.000002 -0.000001 -7.638974 69.385843 -54.963700 2.611376 -0.000001 0.000001 -8.008609 0.474496 -5.972689 -26.244934 0.000000 -2.724540 -1.180635 0.000001 0.000001 0.000000 
22.271475 0.924052 16.077518 11.471155 2.033979 207.174404 0.000004 -0.000001 1.489416 -12.959980 -4.495277 -2.318021 0.000001 -0.000002 4.064480 19.567642 -1.015106 -0.447274 -0.000005 -0.000000 4.427751 12.148411 -5.419716 10.244430 -0.000001 -0.363270 2.815358 4.128518 12.646366 11.854921 0.731531 0.096024 3.575182 -8.409144 -17.170609 -0.269124 2.610320 0.000001 -0.000001 4.463843 25.295039 -19.511190 5.118420 0.000000 -0.000000 -14.797284 -10.068314 -20.723217 4.756908 -0.000000 -0.000000 -12.898010 4.922768 -1.287006 -0.721446 0.096025 3.575181 -3.919987 16.591715 -6.211668 -2.610323 -0.000001 0.000003 26.149629 -10.812693 25.154309 -5.118420 -0.000002 0.000000 -53.693002 35.153280 119.660953 -4.756909 -0.000000 -0.000000 2.071187 27.133729 5.844531 1.816363 -0.000001 0.000002 9.913319 5.943548 -15.944622 0.000002 0.000001 -7.638973 20.074546 1.758455 -9.642897 0.000002 0.000001 -8.008608 -2.716562 -12.205635 7.388991 0.000000 -2.724539 -1.180633 0.000000 0.000000 -0.000000 -1.816358 0.000000 0.000001 -75.071716 -3.651911 9.659382 -0.000001 0.000000 -7.638973 67.682510 -54.503076 1.658751 0.000003 0.000001 -8.008609 0.594680 -6.535820 -25.877524 0.000000 -2.724537 -1.180633 0.000001 0.000001 0.000000 
22.230707 0.945750 16.066723 11.147997 2.312440 207.975804 0.000000 0.000000 1.489413 -13.079335 -4.321387 -2.428352 -0.000001 -0.000000 4.064482 19.430708 -0.877737 -0.513542 -0.000005 -0.000000 4.427757 12.175333 -5.401422 10.184725 0.000003 -0.363277 2.815358 4.069016 12.656796 11.799463 0.731534 0.096024 3.575184 -8.364566 -17.188420 -0.293775 2.610322 -0.000001 0.000002 4.322209 25.386155 -19.556753 5.118422 0.000000 -0.000002 -14.764685 -10.069060 -20.690873 4.756908 0.000001 0.000001 -12.867268 4.914682 -1.310498 -0.721443 0.096023 3.575186 -3.880580 16.572821 -6.286089 -2.610318 -0.000000 -0.000001 25.897892 -10.897517 24.992586 -5.118420 -0.000000 0.000002 -53.451575 35.004801 119.700978 -4.756908 -0.000005 0.000002 2.123989 27.139982 5.886113 1.816359 0.000001 -0.000002 9.810002 6.213981 -15.935378 0.000001 0.000001 -7.638975 20.165678 1.682616 -9.781128 0.000000 0.000001 -8.008608 -2.803162 -12.219252 6.798695 0.000000 -2.724539 -1.180633 0.000002 -0.000000 0.000000 -1.816358 0.000000 -0.000002 -74.337115 -3.806015 9.415481 0.000002 0.000002 -7.638975 65.995487 -53.945958 0.505492 0.000000 0.000001 -8.008611 0.790555 -7.108191 -25.387842 -0.000000 -2.724537 -1.180633 -0.000001 0.000002 0.000000 
22.190073 0.965605 16.053375 10.782439 2.614209 208.758394 0.000001 0.000000 1.489413 -13.179962 -4.098945 -2.495292 0.000002 -0.000000 4.064482 19.270078 -0.754756 -0.564916 -0.000002 -0.000001 4.427752 12.162924 -5.387149 10.136671 0.000000 -0.363273 2.815355 4.029743 12.670447 11.756042 0.731534 0.096024 3.575183 -8.374968 -17.166588 -0.365402 2.610320 0.000001 -0.000002 4.188880 25.409931 -19.547660 5.118422 0.000000 0.000001 -14.702561 -10.033718 -20.657644 4.756910 -0.000001 0.000001 -12.814604 4.916681 -1.310939 -0.721442 0.096024 3.575182 -3.876872 16.587878 -6.382207 -2.610319 -0.000001 -0.000002 25.729992 -11.004651 24.865372 -5.118416 -0.000003 -0.000001 -53.273392 34.881134 119.774074 -4.756907 0.000000 0.000001 2.206256 27.133471 5.826837 1.816360 0.000000 -0.000001 9.685672 6.485318 -16.021191 -0.000002 0.000001 -7.638975 20.220662 1.724579 -9.599277 0.000001 0.000001 -8.008608 -2.932861 -12.269257 5.953744 0.000002 -2.724539 -1.180634 -0.000001 0.000000 0.000001 -1.816360 0.000001 -0.000001 -73.637246 -3.978189 9.208135 0.000000 -0.000000 -7.638973 64.448374 -53.270425 -0.410580 -0.000001 0.000002 -8.008606 1.023015 -7.402264 -24.940743 0.000001 -2.724538 -1.180635 0.000000 0.000006 -0.000001 
22.148018 0.986391 16.041521 10.459211 2.866712 209.588603 0.000001 -0.000000 1.489418 -13.302889 -3.962994 -2.628947 0.000000 0.000000 4.064482 19.176233 -0.581427 -0.642916 -0.000001 -0.000002 4.427753 12.089804 -5.346134 10.118137 0.000000 -0.363272 2.815356 4.028884 12.610002 11.734085 0.731534 0.096023 3.575182 -8.327432 -17.184804 -0.348461 2.610323 0.000002 0.000001 4.295310 25.418904 -19.711823 5.118422 0.000000 0.000002 -14.805340 -10.101623 -20.667080 4.756910 -0.000001 -0.000001 -12.906407 4.891818 -1.263017 -0.721443 0.096023 3.575184 -3.868964 16.600420 -6.441586 -2.610320 -0.000001 -0.000002 25.454170 -11.176385 24.700300 -5.118422 -0.000002 -0.000001 -52.995455 34.722264 119.839890 -4.756906 -0.000001 0.000004 2.325708 27.212759 5.763749 1.816361 -0.000000 0.000001 9.658633 6.652849 -16.120221 -0.000001 0.000001 -7.638975 20.231790 1.767340 -9.769756 0.000001 0.000001 -8.008607 -3.102189 -12.400558 5.413006 0.000002 -2.724538 -1.180634 0.000001 0.000000 -0.000000 -1.816357 0.000000 0.000003 -72.854739 -4.108331 9.006057 0.000004 -0.000001 -7.638977 62.834701 -52.614419 -1.493879 -0.000000 0.000002 -8.008608 1.252877 -7.705341 -24.427388 0.000000 -2.724539 -1.180632 0.000004 -0.000001 0.000000 
22.105839 1.011554 16.029015 10.158769 3.110282 210.464110 0.000001 0.000001 1.489416 -13.423620 -3.735900 -2.765024 -0.000001 -0.000001 4.064483 19.097460 -0.547008 -0.701634 -0.000003 0.000001 4.427755 12.034864 -5.300697 10.069120 0.000002 -0.363274 2.815358 4.002770 12.576655 11.685106 0.731534 0.096025 3.575187 -8.331568 -17.156189 -0.389943 2.610319 0.000001 -0.000003 4.250726 25.457807 -19.778478 5.118422 -0.000002 0.000002 -14.802809 -10.108315 -20.666325 4.756909 0.000000 0.000001 -12.902544 4.848733 -1.279111 -0.721442 0.096025 3.575183 -3.784577 16.597517 -6.598896 -2.610318 0.000000 0.000001 25.294806 -11.203226 24.670389 -5.118422 0.000000 0.000001 -52.891923 34.337670 119.857744 -4.756908 -0.000001 0.000002 1.744403 26.682110 6.457054 1.816359 0.000001 0.000001 9.643935 6.826711 -16.277476 -0.000001 0.000002 -7.638975 20.227054 1.771095 -9.811975 -0.000000 0.000001 -8.008609 -3.244634 -12.446275 4.752496 0.000001 -2.724539 -1.180633 0.000003 -0.000000 0.000001 -1.816358 -0.000000 0.000000 -72.043462 -4.258332 8.780357 -0.000001 0.000002 -7.638975 61.430742 -51.741811 -2.280173 0.000001 0.000000 -8.008610 1.329018 -8.159846 -23.774036 -0.000000 -2.724537 -1.180635 -0.000002 0.000003 0.000001 
